<?xml version="1.0" standalone="no"?><!DOCTYPE svg PUBLIC "-//W3C//DTD SVG 1.1//EN" "http://www.w3.org/Graphics/SVG/1.1/DTD/svg11.dtd"><svg t="1748514093192" class="icon" viewBox="0 0 1024 1024" version="1.1" xmlns="http://www.w3.org/2000/svg" p-id="9379" xmlns:xlink="http://www.w3.org/1999/xlink" width="200" height="200"><path d="M537.7 767.7l-42.2-6.4c2.8-18.8 4.3-38.4 4.3-58.5 0-34.6-4.3-68.1-12.4-96.9l41.1-11.6c9.2 32.5 14 70 14 108.5-0.1 22.2-1.7 44-4.8 64.9z" fill="#333333" p-id="9380"></path><path d="M574.7 742.6c19.3 29.6 58.9 38.1 88.5 18.8s73.9-82.1 54.6-111.8c-19.3-29.6-94.7-14.8-124.3 4.4-29.7 19.3-38.1 58.9-18.8 88.6z" fill="#B2F590" p-id="9381"></path><path d="M628.5 793c-28 0-55.4-13.7-71.7-38.8-25.6-39.5-14.4-92.4 25.1-118 18.2-11.8 47.9-21.2 75.6-23.9 37.3-3.6 65.1 5.5 78.2 25.7s10.2 49.3-8.3 81.9c-13.7 24.2-34.3 47.5-52.6 59.4-14.3 9.3-30.4 13.7-46.3 13.7z m-35.9-62c12.8 19.7 39.3 25.4 59 12.5 10.2-6.7 26.7-23.4 38.7-44.6 6.4-11.3 14.2-30.6 9.6-37.7-4.6-7-25.4-7.8-38.3-6.5-24.2 2.3-46.2 10.6-56.5 17.2-19.7 12.9-25.4 39.3-12.5 59.1z" fill="#333333" p-id="9382"></path><path d="M461.8 742.6c-19.3 29.6-58.9 38.1-88.5 18.8s-73.9-82.1-54.6-111.8C338 620 413.4 634.8 443 654c29.6 19.3 38 58.9 18.8 88.6z" fill="#B2F590" p-id="9383"></path><path d="M408 793c-15.9 0-32-4.4-46.3-13.7-18.2-11.8-38.9-35.2-52.6-59.4-18.5-32.6-21.4-61.7-8.3-81.9 13.1-20.2 40.9-29.3 78.2-25.7 27.7 2.7 57.4 12 75.6 23.9 39.5 25.6 50.7 78.6 25.1 118-16.3 25.2-43.8 38.8-71.7 38.8z m-43.9-138.7c-11.5 0-24.2 1.7-27.6 7-4.6 7 3.3 26.4 9.6 37.7 12 21.2 28.4 37.9 38.7 44.6 19.7 12.8 46.2 7.2 59-12.5 12.8-19.7 7.2-46.2-12.5-59-10.2-6.7-32.3-14.9-56.5-17.2-3.1-0.5-6.8-0.6-10.7-0.6z" fill="#333333" p-id="9384"></path><path d="M511.9 375.7m-128 0a128 128 0 1 0 256 0 128 128 0 1 0-256 0Z" fill="#FF9320" p-id="9385"></path><path d="M511.9 525c-82.3 0-149.3-67-149.3-149.3s67-149.3 149.3-149.3c82.3 0 149.3 67 149.3 149.3S594.3 525 511.9 525z m0-256c-58.8 0-106.7 47.9-106.7 106.7s47.9 106.7 106.7 106.7c58.8 0 106.7-47.9 106.7-106.7S570.8 269 511.9 269z" fill="#333333" p-id="9386"></path><path d="M513.1 248.6c35.3 0 64-28.7 64-64s-28.7-106.7-64-106.7-64 71.3-64 106.7 28.7 64 64 64z" fill="#FFDB1B" p-id="9387"></path><path d="M513.1 269.9c-47.1 0-85.3-38.3-85.3-85.3 0-21.7 8.3-51.8 21.2-76.4 17.3-33.2 40.1-51.6 64.2-51.6s46.9 18.3 64.2 51.6c12.9 24.7 21.2 54.7 21.2 76.4-0.1 47-38.4 85.3-85.5 85.3z m0-170.7c-8.4 0-20.3 17.1-26.3 28.6-11.2 21.6-16.3 44.5-16.3 56.7 0 23.5 19.1 42.7 42.7 42.7s42.7-19.1 42.7-42.7c0-12.2-5.1-35.2-16.3-56.7-6.1-11.5-18.1-28.6-26.5-28.6z" fill="#333333" p-id="9388"></path><path d="M600.2 280.2c27.1 22.7 67.4 19.2 90.2-7.9 22.7-27.1 46.6-100.1 19.5-122.8-27.1-22.7-94.9 13.5-117.6 40.6-22.7 27.1-19.2 67.4 7.9 90.1z" fill="#FFDB1B" p-id="9389"></path><path d="M641.2 316.6c-20 0-39.2-7-54.7-20-36-30.2-40.8-84.2-10.5-120.2 14-16.7 39.6-34.3 65.3-45 34.6-14.3 63.9-13.7 82.3 1.8s24.1 44.2 16 80.8c-6 27.2-18.9 55.5-32.9 72.2-14.7 17.5-35.2 28.2-57.9 30.2-2.6 0-5.1 0.2-7.6 0.2z m-27.3-52.7c8.7 7.3 19.8 10.8 31.1 9.8 11.4-1 21.6-6.3 29-15.1 7.9-9.4 18.7-30.2 24-54 2.8-12.7 4.6-33.4-1.8-38.8-6.4-5.4-26.6 0-38.6 5-22.5 9.3-41.1 23.6-49 33-15.1 18-12.7 45 5.3 60.1z" fill="#333333" p-id="9390"></path><path d="M646.5 360.5c6.1 34.8 39.3 58.1 74.1 51.9 34.8-6.1 100.1-46.7 93.9-81.6-6.1-34.8-81.4-50.6-116.2-44.5-34.7 6.2-57.9 39.4-51.8 74.2z" fill="#FFDB1B" p-id="9391"></path><path d="M709.5 434.7c-40.6 0-76.7-29.2-84-70.5-8.2-46.3 22.9-90.7 69.2-98.9 21.4-3.8 52.4-0.8 79 7.6 35.8 11.3 57.7 30.5 61.9 54.2 4.2 23.7-9.9 49.3-39.6 72.2-22.1 16.9-50.2 30.3-71.6 34.1-5 0.9-10 1.3-14.9 1.3z m-42-77.9c4.1 23.2 26.3 38.7 49.4 34.6 12-2.1 33.8-11.1 53-25.9 10.3-7.9 25-22.6 23.6-30.9-1.5-8.3-20.4-17.1-32.7-21-23.2-7.3-46.7-8.4-58.7-6.2-11.2 2-21 8.2-27.5 17.5s-9.1 20.7-7.1 31.9z" fill="#333333" p-id="9392"></path><path d="M630.4 451.7c-17.7 30.6-7.2 69.8 23.4 87.4 30.6 17.7 106.7 28.5 124.4-2.1s-29.8-91.1-60.4-108.8c-30.6-17.6-69.7-7.1-87.4 23.5z" fill="#FFDB1B" p-id="9393"></path><path d="M727.4 577.7c-2.4 0-4.9-0.1-7.4-0.2-27.8-1.2-57.9-9-76.8-19.9-19.7-11.4-33.9-29.8-39.8-51.8-5.9-22-2.9-45 8.5-64.8 23.5-40.7 75.8-54.8 116.6-31.2 18.8 10.9 40.7 33.1 55.6 56.5 20.1 31.6 24.6 60.5 12.6 81.4-11.2 19.5-35.7 30-69.3 30z m-41.5-136.6c-14.8 0-29.1 7.7-37 21.3-5.7 9.9-7.2 21.4-4.3 32.4 2.9 11 10 20.2 19.9 25.9 10.6 6.1 33 13.2 57.3 14.2 12.9 0.6 33.7-1.2 37.9-8.5 4.2-7.3-4.6-26.2-11.6-37.1-13.1-20.5-30.4-36.4-41-42.5-6.6-3.9-13.9-5.7-21.2-5.7z" fill="#333333" p-id="9394"></path><path d="M559.5 511.3c-33.2 12.1-50.3 48.8-38.3 82 12.1 33.2 63.4 90.4 96.6 78.3s35.7-88.9 23.7-122.1c-12.1-33.2-48.8-50.3-82-38.2z" fill="#FFDB1B" p-id="9395"></path><path d="M608.3 694.6c-18.9 0-40-10.1-61.1-29.4-20.5-18.8-38.6-44.2-46-64.6-16.1-44.2 6.8-93.3 51-109.4 44.2-16.1 93.3 6.8 109.4 51 7.4 20.4 9.9 51.5 6.3 79.1-4.9 37.2-20 62.2-42.7 70.4-5.4 1.9-11 2.9-16.9 2.9z m-27-165.9c-4.8 0-9.7 0.8-14.5 2.6-22.1 8-33.5 32.6-25.5 54.7 4.2 11.5 16.8 31.3 34.8 47.7 9.6 8.8 26.6 20.7 34.5 17.9 7.9-2.9 13.3-23 15-35.9 3.2-24.1 0.1-47.4-4.1-58.9-6.4-17.3-22.8-28.1-40.2-28.1z" fill="#333333" p-id="9396"></path><path d="M466.8 511.3c-33.2-12.1-69.9 5-82 38.3-12.1 33.2-9.6 110 23.7 122.1s84.5-45.1 96.6-78.3-5.1-70-38.3-82.1z" fill="#FFDB1B" p-id="9397"></path><path d="M417.9 694.6c-5.8 0-11.5-1-16.8-2.9-22.6-8.2-37.8-33.2-42.7-70.4-3.6-27.6-1.2-58.6 6.3-79.1 7.8-21.4 23.5-38.5 44.1-48.2s43.8-10.6 65.2-2.8c44.2 16.1 67.1 65.2 51 109.4-7.4 20.4-25.5 45.8-46 64.6-21 19.3-42.2 29.4-61.1 29.4z m27-165.9c-6.1 0-12.3 1.3-18 4-10.3 4.8-18.2 13.4-22.1 24.1-4.2 11.5-7.2 34.8-4.1 58.9 1.7 12.8 7.1 33 15 35.9 7.9 2.9 25-9.1 34.5-17.9 17.9-16.4 30.6-36.3 34.8-47.7 8-22.1-3.4-46.6-25.5-54.7-4.8-1.7-9.7-2.6-14.6-2.6z" fill="#333333" p-id="9398"></path><path d="M395.8 451.7c-17.7-30.6-56.8-41.1-87.4-23.4-30.6 17.7-78 78.1-60.4 108.8s93.8 19.8 124.4 2.1 41.1-56.9 23.4-87.5z" fill="#FFDB1B" p-id="9399"></path><path d="M298.9 577.7c-33.6 0-58.1-10.5-69.3-30-12-20.9-7.6-49.7 12.6-81.4 15-23.5 36.8-45.7 55.6-56.5 40.7-23.5 93-9.5 116.6 31.2 23.5 40.7 9.5 93-31.2 116.6-18.8 10.9-49 18.7-76.8 19.9-2.6 0.1-5.1 0.2-7.5 0.2z m41.4-136.6c-7.2 0-14.6 1.8-21.3 5.7-10.6 6.1-27.9 22-41 42.5-7 10.9-15.8 29.8-11.6 37.1 4.2 7.3 25 9.1 37.9 8.5 24.3-1.1 46.7-8.1 57.3-14.2 9.9-5.7 16.9-14.9 19.9-25.9 2.9-11 1.4-22.5-4.3-32.4-7.7-13.7-22.1-21.3-36.9-21.3z" fill="#333333" p-id="9400"></path><path d="M379.7 360.5c6.1-34.8-17.1-68-51.9-74.1s-110 9.7-116.2 44.5 59.1 75.4 93.9 81.6 68.1-17.2 74.2-52z" fill="#FFDB1B" p-id="9401"></path><path d="M316.8 434.7c-4.9 0-9.9-0.4-14.9-1.3-21.4-3.8-49.5-17.2-71.6-34.1-29.7-22.8-43.8-48.4-39.6-72.2 4.2-23.7 26.2-43 61.9-54.2 26.5-8.4 57.5-11.3 79-7.6 46.3 8.2 77.4 52.5 69.2 98.9-7.3 41.3-43.4 70.5-84 70.5z m-5.9-128.3c-12.5 0-29.1 2-45.5 7.2-12.4 3.9-31.3 12.7-32.7 21-1.5 8.3 13.3 23 23.6 30.9 19.3 14.8 41 23.8 53 25.9 23.2 4.1 45.3-11.4 49.4-34.6s-11.4-45.3-34.6-49.4c-3.5-0.7-8-1-13.2-1z" fill="#333333" p-id="9402"></path><path d="M426.1 280.2c27.1-22.7 30.6-63.1 7.9-90.2-22.7-27.1-90.5-63.3-117.6-40.6s-3.2 95.8 19.5 122.8c22.7 27.2 63.1 30.8 90.2 8z" fill="#FFDB1B" p-id="9403"></path><path d="M385.1 316.6c-2.5 0-5-0.1-7.6-0.3-22.7-2-43.3-12.7-57.9-30.2-14-16.7-26.9-45-32.9-72.2-8.1-36.6-2.4-65.3 16-80.8s47.7-16.1 82.3-1.8c25.7 10.7 51.4 28.3 65.3 45 14.7 17.5 21.6 39.6 19.6 62.3-2 22.7-12.7 43.3-30.2 57.9-15.4 13.1-34.6 20.1-54.6 20.1z m-46.3-153c-3.7 0-6.8 0.7-8.7 2.2-6.4 5.4-4.6 26.2-1.8 38.8 5.3 23.7 16.1 44.6 24 54 15.1 18 42.1 20.4 60.1 5.3 18-15.1 20.4-42.1 5.3-60.1-7.9-9.4-26.5-23.7-49-33-8.5-3.5-21-7.2-29.9-7.2z" fill="#333333" p-id="9404"></path><path d="M377.47 359.145l213.368-85.348 7.911 19.777-213.369 85.348z" fill="#333333" p-id="9405"></path><path d="M378.696 322.974l17.055-12.758 137.65 184-17.054 12.76zM430.154 287.681l17.055-12.759 137.65 184.001-17.055 12.759zM483.993 254.988l17.054-12.758 137.65 184-17.054 12.76z" fill="#333333" p-id="9406"></path><path d="M402.263 417.542l213.369-85.348 7.91 19.777-213.369 85.348zM419.951 474.32l213.37-85.347 7.91 19.777-213.369 85.347z" fill="#333333" p-id="9407"></path><path d="M436 768h152c23.6 0 42.7 19.1 42.7 42.7 0 2.8-0.3 5.6-0.8 8.4l-25.6 128c-4 19.9-21.5 34.3-41.8 34.3H461.6c-20.3 0-37.8-14.4-41.8-34.3L394.2 819c-4.6-23.1 10.4-45.6 33.5-50.2 2.7-0.5 5.5-0.8 8.3-0.8z" fill="#D4864B" p-id="9408"></path><path d="M562.4 1002.7H461.6c-30.4 0-56.8-21.6-62.8-51.4l-25.6-128c-6.9-34.6 15.6-68.4 50.2-75.3 4.1-0.8 8.3-1.2 12.6-1.2h152c35.3 0 64 28.7 64 64 0 4.2-0.4 8.4-1.2 12.5l-25.6 128c-6.1 29.7-32.4 51.4-62.8 51.4zM436 789.3c-1.4 0-2.8 0.1-4.2 0.4-11.5 2.3-19 13.6-16.7 25.1l25.6 128c2 9.9 10.8 17.1 20.9 17.1h100.7c10.1 0 18.9-7.2 20.9-17.2l25.6-128c0.3-1.4 0.4-2.8 0.4-4.2 0-11.8-9.6-21.3-21.3-21.3H436z" fill="#333333" p-id="9409"></path><path d="M514.7 847c-36.5 0-72.4-3-106.5-8.8-5.8-1-9.7-6.5-8.7-12.3 1-5.8 6.5-9.7 12.3-8.7 33 5.7 67.6 8.5 102.9 8.5 35.4 0 71.4-2.9 106.9-8.6 5.8-0.9 11.3 3 12.2 8.9s-3 11.3-8.9 12.2c-36.6 5.8-73.7 8.8-110.2 8.8zM511 879.6c-36.5 0-72.4-3-106.5-8.8-5.8-1-9.7-6.5-8.7-12.3 1-5.8 6.5-9.7 12.3-8.7 33 5.7 67.6 8.5 102.9 8.5 35.4 0 71.4-2.9 106.9-8.6 5.8-0.9 11.3 3 12.2 8.9s-3 11.3-8.9 12.2c-36.6 5.8-73.7 8.8-110.2 8.8z" fill="#333333" p-id="9410"></path></svg>